HIERARCHY
ROOT Hips
{
	OFFSET 0.000000 0.000000 0.000000
	CHANNELS 6 Xposition Yposition Zposition Zrotation Yrotation Xrotation 
	JOINT LowerBack
	{
		OFFSET 0.000000 0.000000 0.000000
		CHANNELS 3 Zrotation Yrotation Xrotation
		JOINT Spine
		{
			OFFSET 0.028270 2.035590 -0.193380
			CHANNELS 3 Zrotation Yrotation Xrotation
			JOINT Spine1
			{
				OFFSET 0.056720 2.048850 -0.042750
				CHANNELS 3 Zrotation Yrotation Xrotation
				JOINT Neck
				{
					OFFSET 0.000000 0.000000 0.000000
					CHANNELS 3 Zrotation Yrotation Xrotation
					JOINT Neck1
					{
						OFFSET -0.054170 1.746240 0.172020
						CHANNELS 3 Zrotation Yrotation Xrotation
						JOINT Head
						{
							OFFSET 0.104070 1.761360 -0.123970
							CHANNELS 3 Zrotation Yrotation Xrotation
							End Site
							{
								OFFSET 0.000000 0.000000 0.000000
							}
						}
					}
				}
				JOINT LeftShoulder
				{
					OFFSET 0.000000 0.000000 0.000000
					CHANNELS 3 Zrotation Yrotation Xrotation
					JOINT LeftArm
					{
						OFFSET 3.362410 1.200890 -0.311210
						CHANNELS 3 Zrotation Yrotation Xrotation
						JOINT LeftForeArm
						{
							OFFSET 4.983000 -0.000000 -0.000000
							CHANNELS 3 Zrotation Yrotation Xrotation
							JOINT LeftHand
							{
								OFFSET 3.483560 -0.000000 -0.000000
								CHANNELS 3 Zrotation Yrotation Xrotation
								JOINT LeftFingerBase
								{
									OFFSET 0.000000 0.000000 0.000000
									CHANNELS 3 Zrotation Yrotation Xrotation
									JOINT LeftHandIndex1
									{
										OFFSET 0.715260 -0.000000 -0.000000
										CHANNELS 3 Zrotation Yrotation Xrotation
										End Site
										{
											OFFSET 0.000000 0.000000 0.000000
										}
									}
								}
								JOINT LThumb
								{
									OFFSET 0.000000 0.000000 0.000000
									CHANNELS 3 Zrotation Yrotation Xrotation
									End Site
									{
										OFFSET 0.000000 0.000000 0.000000
									}
								}
							}
						}
					}
				}
				JOINT RightShoulder
				{
					OFFSET 0.000000 0.000000 0.000000
					CHANNELS 3 Zrotation Yrotation Xrotation
					JOINT RightArm
					{
						OFFSET -3.136600 1.374050 -0.404650
						CHANNELS 3 Zrotation Yrotation Xrotation
						JOINT RightForeArm
						{
							OFFSET -5.241900 -0.000000 -0.000000
							CHANNELS 3 Zrotation Yrotation Xrotation
							JOINT RightHand
							{
								OFFSET -3.444170 -0.000000 -0.000000
								CHANNELS 3 Zrotation Yrotation Xrotation
								JOINT RightFingerBase
								{
									OFFSET 0.000000 0.000000 0.000000
									CHANNELS 3 Zrotation Yrotation Xrotation
									JOINT RightHandIndex1
									{
										OFFSET -0.622530 -0.000000 -0.000000
										CHANNELS 3 Zrotation Yrotation Xrotation
										End Site
										{
											OFFSET 0.000000 0.000000 0.000000
										}
									}
								}
								JOINT RThumb
								{
									OFFSET 0.000000 0.000000 0.000000
									CHANNELS 3 Zrotation Yrotation Xrotation
									End Site
									{
										OFFSET 0.000000 0.000000 0.000000
									}
								}
							}
						}
					}
				}
			}
		}
	}
}
}
MOTION
Frames: 17
Frame Time: 0.008333
19.021212 16.827207 2.201874 86.183223 -87.783375 -35.252463 1.789882 -2.392995 -3.683924 -0.343094 -2.659343 -3.617607 -5.853381 -2.790189 1.106066 10.635786 -14.755084 -12.147784 -2.008099 -0.075643 -1.618405 0.000000 0.000000 0.000000 -1.031142 9.743680 2.199125 -62.860005 34.362372 17.536133 -1.630053 -57.489601 0.006841 2.984784 -4.818431 -0.131331 -0.108034 0.072519 -0.000000 0.000000 0.000000 0.000000 0.000000 0.000000 0.000000 14.098635 -12.326998 3.107980 68.296474 -21.455290 2.296052 2.534262 36.212939 0.009487 -3.654993 6.522286 -0.220440 0.146972 -0.131383 0.000000 0.000000 0.000000 0.000000 0.000000 0.000000 0.000000 
18.998186 16.753533 2.203020 87.138365 -87.551780 -35.000849 1.658524 -2.442262 -3.897435 -0.382328 -2.711469 -3.674356 -5.867086 -2.847225 1.092832 10.838408 -14.806040 -12.369610 -2.054114 -0.075294 -1.705574 0.000000 0.000000 0.000000 -1.190848 9.894484 2.289067 -63.490723 34.171284 16.027591 -1.585668 -57.736673 0.006429 3.347893 -5.066170 -0.154621 -0.109223 0.081927 -0.000000 0.000000 0.000000 0.000000 0.000000 0.000000 0.000000 14.601283 -12.352175 3.156810 68.312067 -21.249043 1.824977 2.478013 36.446743 0.009014 -3.631436 6.579012 -0.221045 0.144605 -0.137650 0.000000 0.000000 0.000000 0.000000 0.000000 0.000000 0.000000 
18.974504 16.668240 2.204698 87.402082 -87.303173 -34.019957 1.545852 -2.492005 -4.163627 -0.418749 -2.767814 -3.745949 -5.886530 -2.909462 1.076071 11.035049 -14.814654 -12.582781 -2.112994 -0.076338 -1.790188 0.000000 0.000000 0.000000 -1.415119 10.015088 2.381111 -64.076277 33.875068 14.496083 -1.544914 -57.872870 0.005915 3.689539 -5.307101 -0.178315 -0.109868 0.090645 -0.000000 0.000000 0.000000 0.000000 0.000000 0.000000 0.000000 15.137678 -12.341710 3.203613 68.317420 -20.980802 1.259590 2.421390 36.623378 0.008405 -3.637896 6.603971 -0.222349 0.142412 -0.143884 0.000000 0.000000 0.000000 0.000000 0.000000 0.000000 0.000000 
18.950051 16.570039 2.206846 87.234324 -87.030365 -32.564959 1.442897 -2.541508 -4.496009 -0.452362 -2.827511 -3.832448 -5.904262 -2.975872 1.067700 11.220264 -14.813644 -12.791796 -2.176597 -0.077990 -1.873038 0.000000 0.000000 0.000000 -1.670800 10.132817 2.473694 -64.623300 33.431201 12.985521 -1.509985 -57.850124 0.005327 4.013470 -5.537601 -0.202312 -0.110221 0.098691 -0.000000 0.000000 0.000000 0.000000 0.000000 0.000000 0.000000 15.676905 -12.331319 3.245840 68.308651 -20.627870 0.665077 2.364560 36.731168 0.007674 -3.694889 6.607220 -0.225954 0.140675 -0.149938 0.000000 0.000000 0.000000 0.000000 0.000000 0.000000 0.000000 
18.924486 16.457974 2.209659 86.772479 -86.734881 -30.776190 1.351271 -2.588349 -4.904303 -0.482438 -2.888646 -3.937024 -5.919578 -3.044625 1.065378 11.386812 -14.794780 -12.987873 -2.243807 -0.080330 -1.950905 0.000000 0.000000 0.000000 -1.952506 10.228681 2.565314 -65.133786 32.875817 11.486481 -1.481344 -57.675953 0.004684 4.310688 -5.745747 -0.225213 -0.110281 0.105890 -0.000000 0.000000 0.000000 0.000000 0.000000 0.000000 0.000000 16.202515 -12.311916 3.283722 68.297400 -20.225393 0.023394 2.308569 36.790122 0.006852 -3.785706 6.594456 -0.230961 0.139308 -0.155808 0.000000 0.000000 0.000000 0.000000 0.000000 0.000000 0.000000 
18.897585 16.331145 2.213182 86.160405 -86.418225 -28.801186 1.270131 -2.630819 -5.394896 -0.508630 -2.949678 -4.060986 -5.930997 -3.114116 1.070319 11.529931 -14.760412 -13.167139 -2.312289 -0.083236 -2.022097 0.000000 0.000000 0.000000 -2.248720 10.299711 2.654645 -65.609802 32.224680 10.004823 -1.459362 -57.350949 0.004013 4.578519 -5.924506 -0.246518 -0.110122 0.112171 -0.000000 0.000000 0.000000 0.000000 0.000000 0.000000 0.000000 16.699195 -12.285459 3.316695 68.287873 -19.789663 -0.657851 2.254427 36.810757 0.005979 -3.901562 6.575096 -0.237267 0.138299 -0.161480 0.000000 0.000000 0.000000 0.000000 0.000000 0.000000 0.000000 
18.869302 16.189033 2.217501 85.498056 -86.084336 -26.751734 1.199594 -2.667711 -5.967863 -0.530573 -3.009357 -4.204187 -5.937960 -3.182948 1.083198 11.647053 -14.711964 -13.327645 -2.380366 -0.086607 -2.085573 0.000000 0.000000 0.000000 -2.550769 10.347182 2.740508 -66.050280 31.491292 8.551716 -1.444006 -56.882840 0.003337 4.817785 -6.068924 -0.265625 -0.109825 0.117489 -0.000000 0.000000 0.000000 0.000000 0.000000 0.000000 0.000000 17.156257 -12.252325 3.344335 68.281310 -19.332103 -1.367822 2.203291 36.800959 0.005097 -4.034675 6.558854 -0.244675 0.137632 -0.166938 0.000000 0.000000 0.000000 0.000000 0.000000 0.000000 0.000000 
18.839417 16.031557 2.222691 84.846860 -85.740636 -24.705837 1.141194 -2.698317 -6.615871 -0.547630 -3.066699 -4.364120 -5.940092 -3.249876 1.106107 11.738232 -14.656124 -13.471619 -2.446175 -0.090242 -2.141751 0.000000 0.000000 0.000000 -2.850380 10.384141 2.821758 -66.451046 30.674993 7.150299 -1.435055 -56.277376 0.002672 5.034679 -6.178979 -0.282534 -0.109498 0.121864 -0.000000 0.000000 0.000000 0.000000 0.000000 0.000000 0.000000 17.566941 -12.218082 3.366025 68.272818 -18.847409 -2.081108 2.156246 36.758096 0.004235 -4.184803 6.556649 -0.253682 0.137353 -0.172163 0.000000 0.000000 0.000000 0.000000 0.000000 0.000000 0.000000 
18.808012 15.859276 2.228802 84.234209 -85.397058 -22.715573 1.098241 -2.722178 -7.323690 -0.559875 -3.120981 -4.538310 -5.941137 -3.314019 1.133558 11.805707 -14.575542 -13.595501 -2.512842 -0.094491 -2.189551 0.000000 0.000000 0.000000 -3.154039 10.402928 2.897924 -66.802339 29.805652 5.805701 -1.431139 -55.567985 0.002024 5.235618 -6.252259 -0.297146 -0.109123 0.125211 -0.000000 0.000000 0.000000 0.000000 0.000000 0.000000 0.000000 17.940441 -12.162432 3.382434 68.260863 -18.353629 -2.813876 2.113976 36.692495 0.003421 -4.339189 6.573344 -0.263588 0.137319 -0.177191 0.000000 0.000000 0.000000 0.000000 0.000000 0.000000 0.000000 
18.775119 15.673241 2.235876 83.661064 -85.065441 -20.808112 1.074650 -2.739216 -8.070156 -0.566701 -3.171654 -4.721059 -5.942638 -3.374517 1.165879 11.854501 -14.472331 -13.704282 -2.580698 -0.099288 -2.230708 0.000000 0.000000 0.000000 -3.461238 10.420659 2.968300 -67.094265 28.872562 4.549299 -1.431484 -54.764249 0.001391 5.433343 -6.294611 -0.310357 -0.108763 0.127582 -0.000000 0.000000 0.000000 0.000000 0.000000 0.000000 0.000000 18.283656 -12.085878 3.393477 68.232866 -17.830583 -3.540958 2.076920 36.589898 0.002659 -4.505773 6.615665 -0.275393 0.137589 -0.182000 0.000000 0.000000 0.000000 0.000000 0.000000 0.000000 0.000000 
18.741031 15.475160 2.243975 83.111427 -84.758311 -18.995367 1.075034 -2.749449 -8.829550 -0.568028 -3.218384 -4.906727 -5.948459 -3.430830 1.198908 11.891282 -14.334299 -13.799345 -2.653085 -0.104897 -2.266119 0.000000 0.000000 0.000000 -3.780670 10.440865 3.032666 -67.313938 27.880107 3.401609 -1.434696 -53.887013 0.000764 5.640780 -6.310653 -0.322968 -0.108390 0.128962 -0.000000 0.000000 0.000000 0.000000 0.000000 0.000000 0.000000 18.613961 -11.974163 3.399930 68.177586 -17.268474 -4.260503 2.044857 36.439204 0.001932 -4.689977 6.686011 -0.289498 0.138143 -0.186591 0.000000 0.000000 0.000000 0.000000 0.000000 0.000000 0.000000 
18.705549 15.267281 2.253085 82.554643 -84.487139 -17.274513 1.104178 -2.752964 -9.574478 -0.563411 -3.260924 -5.088421 -5.961076 -3.482487 1.231586 11.924142 -14.160387 -13.886366 -2.731742 -0.111350 -2.298094 0.000000 0.000000 0.000000 -4.117454 10.476939 3.090706 -67.451504 26.809242 2.390206 -1.439929 -52.938940 0.000128 5.870652 -6.307738 -0.335783 -0.107981 0.129398 -0.000000 0.000000 0.000000 0.000000 0.000000 0.000000 0.000000 18.947286 -11.825319 3.402383 68.079029 -16.634956 -4.955000 2.017415 36.214885 0.001209 -4.905438 6.784532 -0.307101 0.139039 -0.190918 0.000000 0.000000 0.000000 0.000000 0.000000 0.000000 0.000000 
18.668971 15.052246 2.263150 81.964600 -84.260851 -15.641439 1.164619 -2.749969 -10.280069 -0.553322 -3.299249 -5.260773 -5.984089 -3.529381 1.259935 11.961067 -13.939257 -13.966762 -2.820282 -0.118921 -2.327749 0.000000 0.000000 0.000000 -4.480578 10.527751 3.142497 -67.497790 25.652924 1.530530 -1.446219 -51.925545 -0.000518 6.131270 -6.293056 -0.349598 -0.107427 0.128903 -0.000000 0.000000 0.000000 0.000000 0.000000 0.000000 0.000000 19.304816 -11.627590 3.402052 67.924672 -15.909529 -5.622766 1.993528 35.893310 0.000439 -5.166037 6.908873 -0.329103 0.140293 -0.194938 0.000000 0.000000 0.000000 0.000000 0.000000 0.000000 0.000000 
18.631476 14.833382 2.274058 81.319620 -84.085845 -14.098637 1.256892 -2.740564 -10.915118 -0.538755 -3.332705 -5.416963 -6.020191 -3.570783 1.280084 12.010812 -13.665564 -14.043660 -2.921350 -0.127739 -2.356992 0.000000 0.000000 0.000000 -4.877520 10.588705 3.188695 -67.449266 24.392629 0.828959 -1.452750 -50.843019 -0.001186 6.421055 -6.272033 -0.364615 -0.106504 0.127549 -0.000000 0.000000 0.000000 0.000000 0.000000 0.000000 0.000000 19.706934 -11.375471 3.401301 67.705517 -15.060402 -6.271106 1.971699 35.446657 -0.000418 -5.475888 7.054056 -0.355807 0.141786 -0.198630 0.000000 0.000000 0.000000 0.000000 0.000000 0.000000 0.000000 
18.592157 14.612951 2.285704 80.594275 -83.958814 -12.615622 1.378157 -2.725457 -11.490021 -0.521848 -3.362946 -5.562596 -6.075632 -3.608733 1.281052 12.074905 -13.287610 -14.099341 -3.044588 -0.138991 -2.380425 0.000000 0.000000 0.000000 -5.317767 10.615538 3.230947 -67.303739 23.079431 0.262706 -1.457857 -49.708237 -0.001901 6.763259 -6.234476 -0.381335 -0.105159 0.125028 -0.000000 0.000000 0.000000 0.000000 0.000000 0.000000 0.000000 20.181131 -11.017236 3.400824 67.417440 -14.146209 -6.946804 1.949911 34.893264 -0.001434 -5.848615 7.205810 -0.387711 0.143493 -0.201868 0.000000 0.000000 0.000000 0.000000 0.000000 0.000000 0.000000 
18.551849 14.394650 2.297858 79.781632 -83.880274 -11.203014 1.524066 -2.705260 -11.970666 -0.503029 -3.388459 -5.687198 -6.145367 -3.641517 1.270388 12.159574 -12.848238 -14.149679 -3.183097 -0.151656 -2.404008 0.000000 0.000000 0.000000 -5.792079 10.632788 3.269383 -67.069109 21.629351 -0.149704 -1.463227 -48.469911 -0.002631 7.126974 -6.196895 -0.398960 -0.103104 0.121828 -0.000000 0.000000 0.000000 0.000000 0.000000 0.000000 0.000000 20.720827 -10.599238 3.403414 67.053913 -13.070280 -7.604689 1.926809 34.165805 -0.002633 -6.290386 7.367179 -0.425817 0.145338 -0.204608 0.000000 0.000000 0.000000 0.000000 0.000000 0.000000 0.000000 
18.509927 14.181113 2.310250 78.886313 -83.840811 -9.859156 1.685616 -2.680972 -12.361001 -0.485123 -3.409551 -5.793920 -6.230912 -3.669771 1.240820 12.262789 -12.319635 -14.181361 -3.341137 -0.166285 -2.423963 0.000000 0.000000 0.000000 -6.299774 10.599302 3.306607 -66.752983 20.067718 -0.439230 -1.468198 -47.128860 -0.003388 7.510571 -6.151293 -0.416790 -0.100165 0.117940 -0.000000 0.000000 0.000000 0.000000 0.000000 0.000000 0.000000 21.335486 -10.094766 3.411578 66.622159 -11.867314 -8.282401 1.899812 33.274739 -0.004052 -6.798425 7.527317 -0.469526 0.147097 -0.206797 0.000000 0.000000 0.000000 0.000000 0.000000 0.000000 0.000000 
